<?xml version="1.0" standalone="no"?>
<!DOCTYPE svg PUBLIC "-//W3C//DTD SVG 20010904//EN"
 "http://www.w3.org/TR/2001/REC-SVG-20010904/DTD/svg10.dtd">
<svg version="1.0" xmlns="http://www.w3.org/2000/svg"
 width="720.000000pt" height="720.000000pt" viewBox="0 0 720.000000 720.000000"
 preserveAspectRatio="xMidYMid meet">

<g transform="translate(0.000000,720.000000) scale(0.100000,-0.100000)"
fill="#000000" stroke="none">
<path d="M5532 7099 c5 -12 0 -17 -15 -18 -56 -3 -76 -8 -90 -20 -9 -7 -21
-10 -27 -6 -5 3 -10 2 -10 -3 0 -5 -15 -17 -34 -26 -71 -34 -157 -139 -170
-208 -4 -21 -11 -38 -16 -38 -12 0 -10 -233 1 -241 5 -3 11 -20 14 -38 2 -18
11 -41 19 -50 9 -10 16 -23 16 -30 0 -6 7 -14 15 -17 8 -3 17 -14 20 -25 4
-10 27 -33 53 -51 26 -17 51 -38 55 -45 5 -7 12 -11 18 -8 5 4 9 1 9 -5 0 -7
5 -10 12 -8 22 8 48 -31 48 -70 0 -53 -26 -75 -90 -76 -28 -1 -50 -4 -50 -7 0
-3 -12 -5 -27 -5 -16 1 -33 -2 -39 -7 -7 -4 -16 -7 -20 -5 -5 1 -20 -4 -33
-11 -19 -11 -22 -11 -15 1 6 10 5 11 -8 1 -8 -7 -19 -9 -23 -5 -5 4 -5 1 -1
-5 7 -12 -6 -17 -41 -16 -7 1 -13 -3 -13 -9 0 -5 -4 -6 -10 -3 -5 3 -10 1 -10
-5 0 -6 -4 -9 -9 -6 -5 3 -11 -1 -15 -9 -3 -8 -15 -15 -26 -15 -12 0 -18 -4
-15 -10 3 -5 2 -10 -2 -10 -16 0 -96 -85 -105 -112 -6 -16 -14 -28 -20 -28 -5
0 -6 -4 -3 -10 3 -5 3 -16 -2 -22 -4 -7 -9 -22 -10 -33 -2 -10 -7 -22 -11 -25
-4 -3 -8 -14 -9 -25 -11 -110 -16 -185 -15 -208 1 -15 -2 -26 -6 -23 -4 2 -7
-20 -6 -50 1 -30 -2 -54 -6 -54 -4 0 -6 -27 -5 -60 1 -33 -1 -60 -4 -60 -3 0
-5 -27 -4 -60 1 -34 -1 -59 -5 -56 -5 3 -7 -19 -6 -47 2 -44 7 -54 31 -71 60
-42 126 -120 159 -189 19 -39 35 -67 35 -62 2 14 6 52 10 102 3 28 9 43 18 43
10 0 11 3 3 13 -11 13 -13 99 -2 92 3 -2 5 17 4 43 -1 26 2 70 7 97 5 28 11
76 12 108 1 31 4 57 7 57 3 0 4 25 3 55 -1 30 2 53 5 51 4 -2 7 18 6 45 0 28
3 46 9 42 5 -3 6 3 3 15 -4 11 -2 23 4 27 6 3 8 11 4 17 -3 5 6 23 21 38 36
37 56 27 61 -29 2 -23 1 -40 -3 -38 -5 3 -8 -28 -7 -69 0 -41 -2 -74 -5 -74
-3 0 -7 -39 -7 -88 -3 -167 -7 -251 -13 -248 -3 2 -6 -29 -5 -70 0 -41 -3 -74
-6 -74 -4 0 -6 -38 -5 -85 1 -46 -1 -83 -4 -81 -3 2 -5 -35 -4 -82 1 -47 -1
-90 -4 -95 -3 -5 -6 -38 -6 -73 -1 -35 -4 -64 -8 -64 -5 0 -5 -81 1 -87 1 -2
3 -7 4 -13 0 -5 8 -18 17 -29 19 -21 36 -66 23 -58 -5 3 -9 -30 -8 -74 1 -43
-2 -79 -6 -79 -3 0 -5 -32 -4 -71 3 -70 3 -70 43 -100 33 -24 41 -35 41 -62 0
-17 -18 -247 -42 -509 -32 -367 -39 -483 -30 -502 6 -13 27 -36 47 -51 47 -36
96 -36 163 0 97 53 86 7 146 603 44 437 57 536 72 563 11 18 24 34 29 36 6 2
-6 -252 -32 -664 l-42 -668 23 -48 23 -48 -13 -262 c-8 -144 -26 -485 -40
-757 -14 -272 -24 -527 -22 -566 6 -90 43 -176 87 -198 21 -11 58 -16 119 -16
74 0 94 3 114 20 38 29 68 111 78 209 5 47 12 395 16 773 l7 688 128 0 c71 0
129 -1 129 -2 0 -2 5 -338 10 -747 11 -788 14 -831 60 -907 29 -46 64 -57 170
-53 89 4 93 5 120 36 42 46 60 119 60 237 0 126 -68 1516 -75 1535 -3 8 4 33
15 57 l21 43 -40 663 c-23 365 -42 675 -44 691 -2 16 1 27 9 27 16 0 67 -59
83 -97 7 -18 38 -268 69 -557 l57 -526 48 -34 c83 -59 157 -56 219 10 l27 29
-54 565 c-30 311 -59 597 -65 635 -15 99 -76 220 -139 278 -61 54 -163 108
-259 136 l-72 22 25 27 c13 14 21 29 16 32 -4 3 -7 26 -7 52 1 25 -2 44 -6 42
-4 -3 -6 17 -6 43 2 34 13 69 40 119 110 208 87 419 -62 586 -40 45 -47 59
-43 82 4 18 2 27 -4 23 -6 -4 -9 15 -9 47 1 30 -2 52 -6 50 -4 -3 -6 14 -5 36
2 22 0 40 -4 40 -3 0 -6 10 -5 23 1 12 -7 38 -16 57 -10 19 -18 42 -18 51 0
10 -4 19 -9 21 -4 2 -20 22 -35 46 -15 23 -40 51 -56 61 -17 10 -27 21 -23 24
3 4 -4 7 -16 7 -12 0 -24 7 -27 15 -4 8 -10 12 -15 9 -5 -3 -9 0 -9 6 0 6 -4
8 -10 5 -5 -3 -10 -2 -10 4 0 6 -7 8 -15 5 -8 -4 -15 -1 -15 5 0 6 -6 8 -13 5
-8 -3 -19 2 -26 10 -7 8 -18 13 -26 10 -7 -3 -16 0 -20 5 -3 6 -11 8 -17 5 -6
-4 -18 2 -26 12 -11 14 -13 15 -9 3 4 -13 1 -15 -15 -11 -11 2 -22 11 -25 19
-3 9 -9 10 -17 4 -12 -10 -66 -10 -66 0 0 3 -14 4 -30 1 -43 -6 -60 12 -60 65
0 40 22 84 36 70 17 -16 211 133 199 153 -3 5 1 12 9 17 8 4 16 15 18 23 2 8
8 20 15 28 7 7 10 19 7 27 -4 8 -2 15 3 15 5 0 10 6 11 13 0 6 2 29 3 50 1 20
5 37 9 37 7 0 6 62 -2 76 -2 5 -5 24 -7 43 -1 18 -6 42 -12 52 -5 11 -7 23 -4
28 3 5 -1 16 -9 24 -8 8 -12 17 -9 21 4 3 1 6 -5 6 -6 0 -14 9 -17 21 -10 31
-117 139 -137 139 -10 0 -18 5 -18 11 0 5 -4 7 -10 4 -5 -3 -10 -1 -10 4 0 6
-9 11 -21 11 -11 0 -30 5 -42 12 -12 6 -35 12 -52 13 -16 1 -32 3 -35 5 -3 1
-18 1 -33 0 -15 -1 -35 4 -44 12 -14 11 -16 11 -11 -3z m479 -1409 c19 -16 36
-30 39 -30 11 0 40 -59 33 -63 -8 -5 -73 -10 -105 -8 -13 1 -16 9 -13 41 3 22
0 40 -5 40 -6 0 -5 11 2 25 6 14 12 25 13 25 1 0 18 -13 36 -30z"/>
<path d="M1265 6593 c-76 -27 -136 -66 -187 -121 -133 -142 -155 -354 -55
-524 34 -58 112 -130 176 -163 51 -26 52 -26 49 -68 -2 -34 -7 -42 -26 -47
-21 -4 -17 -8 30 -31 239 -118 334 -421 207 -659 -42 -80 -148 -179 -223 -210
-55 -23 -56 -24 -56 -65 l0 -42 78 -7 c264 -24 449 -121 542 -286 l31 -55 -6
135 c-3 74 -8 158 -11 185 l-6 50 -48 -3 c-45 -4 -52 -1 -91 35 l-41 39 39
445 c22 244 39 445 38 447 -2 2 -44 8 -94 15 l-91 11 0 41 c0 39 2 41 56 64
79 34 155 106 176 168 10 27 29 67 44 88 18 28 27 56 31 104 15 183 -85 354
-254 434 -59 27 -81 32 -163 34 -72 3 -107 -1 -145 -14z"/>
<path d="M1990 5508 c0 -7 -16 -182 -36 -388 l-37 -375 27 -265 c32 -296 37
-332 52 -337 18 -6 33 346 16 373 -29 48 -29 86 -1 524 l28 444 -21 18 c-25
21 -28 22 -28 6z"/>
<path d="M2841 5489 c-237 -46 -412 -305 -371 -549 25 -148 125 -290 252 -355
58 -30 58 -30 58 -76 l0 -47 -82 -11 c-125 -18 -194 -38 -293 -85 -148 -70
-237 -179 -270 -332 -12 -55 -72 -699 -110 -1180 -7 -80 -7 -82 24 -116 63
-72 117 -73 218 -7 50 32 63 46 68 72 3 18 27 260 55 539 41 425 53 514 69
547 20 38 41 61 41 44 0 -5 -16 -258 -35 -563 -53 -822 -52 -799 -26 -853 l22
-45 -21 -404 c-11 -221 -29 -576 -40 -788 -12 -211 -18 -405 -14 -430 10 -70
43 -147 71 -170 22 -17 40 -20 134 -20 l108 0 29 35 c16 20 34 52 41 73 21 64
30 306 37 965 l6 637 128 0 128 0 6 -63 c3 -34 8 -371 11 -749 7 -723 10 -769
54 -857 12 -22 30 -45 40 -51 11 -5 66 -10 123 -10 93 0 107 2 127 22 42 38
64 105 69 203 3 82 -45 1152 -67 1490 -6 77 -6 144 -2 150 31 38 32 83 11 391
-33 492 -68 1079 -65 1082 8 8 66 -54 84 -91 21 -44 22 -49 81 -607 55 -524
51 -497 77 -521 12 -13 25 -20 28 -17 3 2 23 207 45 454 40 445 56 551 94 606
10 14 10 40 0 125 -33 271 -142 403 -399 482 -58 18 -236 50 -282 51 -9 0 -13
15 -13 44 l0 43 65 32 c132 65 235 195 265 332 27 120 -3 276 -69 373 -118
172 -303 246 -510 205z"/>
<path d="M610 4790 c-7 -88 -10 -163 -7 -166 3 -3 41 1 84 10 43 8 102 18 131
22 l52 7 0 47 c0 46 -1 48 -42 66 -58 26 -130 84 -164 133 -16 22 -32 41 -35
41 -3 0 -12 -72 -19 -160z"/>
<path d="M5011 4764 c0 -11 3 -14 6 -6 3 7 2 16 -1 19 -3 4 -6 -2 -5 -13z"/>
<path d="M1463 4120 c4 -36 9 -127 13 -202 5 -106 10 -138 20 -138 11 0 14
-40 14 -211 0 -116 7 -319 16 -452 15 -227 14 -302 -1 -389 -6 -31 -4 -37 13
-42 12 -4 35 -23 51 -42 28 -31 31 -42 31 -97 0 -34 -4 -98 -10 -142 -21 -172
-21 -171 6 -184 35 -16 148 -14 189 3 22 10 42 29 57 58 22 42 23 50 22 285
-1 133 -5 267 -9 297 l-6 56 -43 0 c-42 0 -114 36 -143 72 -8 9 -34 211 -68
534 -37 349 -60 531 -71 556 -9 20 -32 51 -51 70 l-36 33 6 -65z"/>
<path d="M581 4124 c0 -11 3 -14 6 -6 3 7 2 16 -1 19 -3 4 -6 -2 -5 -13z"/>
<path d="M5089 3145 c-3 -3 -5 -50 -3 -105 2 -89 1 -98 -14 -93 -13 5 -15 4
-7 -8 15 -20 19 -125 6 -134 -8 -4 -6 -11 4 -21 8 -9 16 -24 16 -35 2 -34 4
-38 17 -50 6 -7 12 -17 12 -22 0 -5 7 -15 15 -24 14 -13 15 -9 9 39 -3 29 -16
144 -28 256 -12 112 -24 201 -27 197z"/>
<path d="M917 2594 c-3 -4 -2 -14 2 -23 5 -9 12 -82 16 -164 9 -176 9 -177
121 -177 l71 0 2 137 c1 75 6 156 10 179 5 24 6 46 3 49 -8 7 -217 6 -225 -1z"/>
</g>
</svg>
